<svg width="64" height="30" viewBox="0 0 64 30" fill="none" xmlns="http://www.w3.org/2000/svg">
<path fill-rule="evenodd" clip-rule="evenodd" d="M49.2737 8.71122C49.3608 8.62391 49.4643 8.55464 49.5782 8.50738C49.6921 8.46012 49.8142 8.43579 49.9375 8.43579C50.0608 8.43579 50.1829 8.46012 50.2968 8.50738C50.4107 8.55464 50.5141 8.62391 50.6012 8.71122L56.2262 14.3362C56.3135 14.4233 56.3828 14.5268 56.4301 14.6407C56.4773 14.7545 56.5016 14.8767 56.5016 15C56.5016 15.1233 56.4773 15.2454 56.4301 15.3593C56.3828 15.4732 56.3135 15.5766 56.2262 15.6637L50.6012 21.2887C50.4252 21.4648 50.1864 21.5636 49.9375 21.5636C49.6885 21.5636 49.4498 21.4648 49.2737 21.2887C49.0977 21.1127 48.9988 20.8739 48.9988 20.625C48.9988 20.376 49.0977 20.1373 49.2737 19.9612L54.2368 15L49.2737 10.0387C49.1864 9.95163 49.1171 9.84818 49.0699 9.73428C49.0226 9.62038 48.9983 9.49828 48.9983 9.37497C48.9983 9.25165 49.0226 9.12955 49.0699 9.01565C49.1171 8.90176 49.1864 8.7983 49.2737 8.71122Z" fill="#8643DC"/>
<path fill-rule="evenodd" clip-rule="evenodd" d="M41.5 15C41.5 14.7514 41.5988 14.5129 41.7746 14.3371C41.9504 14.1613 42.1889 14.0625 42.4375 14.0625H54.625C54.8736 14.0625 55.1121 14.1613 55.2879 14.3371C55.4637 14.5129 55.5625 14.7514 55.5625 15C55.5625 15.2486 55.4637 15.4871 55.2879 15.6629C55.1121 15.8387 54.8736 15.9375 54.625 15.9375H42.4375C42.1889 15.9375 41.9504 15.8387 41.7746 15.6629C41.5988 15.4871 41.5 15.2486 41.5 15Z" fill="#8643DC"/>
<path fill-rule="evenodd" clip-rule="evenodd" d="M8.78161 7.17007C9.53064 6.42104 10.5465 6.00024 11.6058 6.00024C12.6651 6.00024 13.681 6.42104 14.43 7.17007C15.179 7.91909 15.5998 8.93499 15.5998 9.99427C15.5998 11.0535 15.179 12.0694 14.43 12.8185L7.52161 19.7269C7.30832 19.9402 7.05509 20.1095 6.77638 20.225C6.49767 20.3405 6.19894 20.4 5.89724 20.4001C5.28793 20.4002 4.70354 20.1582 4.27261 19.7275C3.84169 19.2967 3.59954 18.7124 3.59942 18.1031C3.59931 17.4938 3.84125 16.9094 4.27201 16.4785L10.974 9.77527L11.8236 10.6249L5.12041 17.3269C5.01854 17.4287 4.93772 17.5497 4.88258 17.6828C4.82745 17.8159 4.79907 17.9586 4.79907 18.1027C4.79907 18.2467 4.82745 18.3894 4.88258 18.5225C4.93772 18.6556 5.01854 18.7766 5.12041 18.8785C5.22229 18.9803 5.34324 19.0612 5.47635 19.1163C5.60947 19.1714 5.75213 19.1998 5.89621 19.1998C6.04029 19.1998 6.18296 19.1714 6.31607 19.1163C6.44919 19.0612 6.57013 18.9803 6.67201 18.8785L13.5804 11.9701C13.8399 11.7106 14.0457 11.4026 14.1861 11.0636C14.3265 10.7246 14.3988 10.3612 14.3988 9.99427C14.3988 9.62733 14.3265 9.26398 14.1861 8.92497C14.0457 8.58596 13.8399 8.27793 13.5804 8.01847C13.3209 7.759 13.0129 7.55318 12.6739 7.41276C12.3349 7.27234 11.9716 7.20006 11.6046 7.20006C11.2377 7.20006 10.8743 7.27234 10.5353 7.41276C10.1963 7.55318 9.88828 7.759 9.62881 8.01847L2.51521 15.1333C1.69 15.9791 1.23133 17.116 1.23861 18.2976C1.24589 19.4793 1.71852 20.6104 2.55408 21.446C3.38965 22.2816 4.52083 22.7542 5.70247 22.7615C6.88411 22.7687 8.02102 22.3101 8.86681 21.4849L15.7752 14.5753L16.6248 15.4249L9.71521 22.3333C8.64141 23.3685 7.20416 23.9408 5.71268 23.9271C4.22121 23.9133 2.79472 23.3147 1.74013 22.26C0.685531 21.2052 0.0871139 19.7786 0.0736277 18.2872C0.0601416 16.7957 0.632664 15.3585 1.66801 14.2849L8.78161 7.16887V7.17007Z" fill="#637085"/>
</svg>
